<?xml version="1.0"?>
<svg xmlns="http://www.w3.org/2000/svg" viewBox="0 0 50 50">
    <path d="M7,3v44h17c0-0.552,0.448-1,1-1s1,0.448,1,1h17V3H7z M22,29h-8v-2h8V29z M22,24h-8v-2h8V24z M22,19h-8v-2h8V19z M22,14h-8 v-2h8V14z M25,45c-0.552,0-1-0.448-1-1s0.448-1,1-1s1,0.448,1,1S25.552,45,25,45z M25,42c-0.552,0-1-0.448-1-1s0.448-1,1-1 s1,0.448,1,1S25.552,42,25,42z M25,39c-0.552,0-1-0.448-1-1s0.448-1,1-1s1,0.448,1,1S25.552,39,25,39z M25,36c-0.552,0-1-0.448-1-1 s0.448-1,1-1s1,0.448,1,1S25.552,36,25,36z M25,33c-0.552,0-1-0.448-1-1s0.448-1,1-1s1,0.448,1,1S25.552,33,25,33z M25,30 c-0.552,0-1-0.448-1-1s0.448-1,1-1s1,0.448,1,1S25.552,30,25,30z M25,27c-0.552,0-1-0.448-1-1s0.448-1,1-1s1,0.448,1,1 S25.552,27,25,27z M25,24c-0.552,0-1-0.448-1-1s0.448-1,1-1s1,0.448,1,1S25.552,24,25,24z M25,21c-0.552,0-1-0.448-1-1s0.448-1,1-1 s1,0.448,1,1S25.552,21,25,21z M25,18c-0.552,0-1-0.448-1-1s0.448-1,1-1s1,0.448,1,1S25.552,18,25,18z M25,15c-0.552,0-1-0.448-1-1 s0.448-1,1-1s1,0.448,1,1S25.552,15,25,15z M25,12c-0.552,0-1-0.448-1-1s0.448-1,1-1s1,0.448,1,1S25.552,12,25,12z M25,9 c-0.552,0-1-0.448-1-1s0.448-1,1-1s1,0.448,1,1S25.552,9,25,9z M25,6c-0.552,0-1-0.448-1-1s0.448-1,1-1s1,0.448,1,1S25.552,6,25,6z M36,39h-8v-2h8V39z M36,34h-8v-2h8V34z M36,29h-8v-2h8V29z M36,24h-8v-2h8V24z M36,19h-8v-2h8V19z M36,14h-8v-2h8V14z"/>
</svg>