<?xml version="1.0" encoding="utf-8"?>
<svg version="1.1" id="Layer_1" xmlns="http://www.w3.org/2000/svg" xmlns:xlink="http://www.w3.org/1999/xlink" x="0px" y="0px"
     viewBox="0 0 512 512" style="enable-background:new 0 0 512 512;" xml:space="preserve">
<style type="text/css">
	.st0{fill-rule:evenodd;clip-rule:evenodd;}
</style>
    <g>
	<path class="st0" d="M109.7,0h292.6c40.4,0,73.1,32.7,73.1,73.1v365.7c0,40.4-32.7,73.1-73.1,73.1H109.7
		c-40.4,0-73.1-32.7-73.1-73.1V73.1C36.6,32.7,69.3,0,109.7,0z M109.7,36.6c-20.2,0-36.6,16.4-36.6,36.6v365.7
		c0,20.2,16.4,36.6,36.6,36.6h292.6c20.2,0,36.6-16.4,36.6-36.6V73.1c0-20.2-16.4-36.6-36.6-36.6H109.7z"/>
        <path class="st0" d="M164.6,347.4c0-10.1,8.2-18.3,18.3-18.3h146.3c10.1,0,18.3,8.2,18.3,18.3c0,10.1-8.2,18.3-18.3,18.3H182.9
		C172.8,365.7,164.6,357.5,164.6,347.4z M256,109.7c10.1,0,18.3,8.2,18.3,18.3v146.3c0,10.1-8.2,18.3-18.3,18.3s-18.3-8.2-18.3-18.3
		V128C237.7,117.9,245.9,109.7,256,109.7z"/>
        <path class="st0" d="M164.6,201.1c0-10.1,8.2-18.3,18.3-18.3h146.3c10.1,0,18.3,8.2,18.3,18.3c0,10.1-8.2,18.3-18.3,18.3H182.9
		C172.8,219.4,164.6,211.2,164.6,201.1z"/>
</g>
</svg>