<?xml version="1.0" encoding="iso-8859-1"?>
<!-- Generator: Adobe Illustrator 16.0.0, SVG Export Plug-In . SVG Version: 6.00 Build 0)  -->
<!DOCTYPE svg PUBLIC "-//W3C//DTD SVG 1.1//EN" "http://www.w3.org/Graphics/SVG/1.1/DTD/svg11.dtd">
<svg version="1.1" id="Capa_1" xmlns="http://www.w3.org/2000/svg" xmlns:xlink="http://www.w3.org/1999/xlink" x="0px" y="0px"
     width="350.368px" height="350.368px" viewBox="0 0 350.368 350.368" style="enable-background:new 0 0 350.368 350.368;"
     xml:space="preserve">
<g>
	<g>
		<path d="M306.869,215.284c0-0.757-0.276-1.411-0.396-2.138c-0.054-0.294-0.09-0.595-0.156-0.889
			c-0.324-1.333-0.816-2.546-1.514-3.687c-0.168-0.295-0.324-0.589-0.516-0.871c-0.24-0.354-0.379-0.781-0.667-1.111l-55.021-86.664
			c-2.42-3.825-6.63-6.143-11.151-6.143h-0.078l30.781-30.778c5.164-5.17,5.164-13.538,0-18.705L207.735,3.87
			C205.256,1.396,201.887,0,198.387,0c-3.507,0-6.882,1.396-9.355,3.87L82.041,110.861c-5.167,5.17-5.167,13.538,0,18.705
			l8.22,8.227l-44.696,70.4c-0.081,0.114-0.105,0.246-0.174,0.354c-0.447,0.78-0.823,1.597-1.123,2.45
			c-0.105,0.288-0.186,0.564-0.27,0.858c-0.204,0.799-0.345,1.615-0.402,2.468c-0.018,0.24-0.06,0.469-0.066,0.721
			c-0.018,0.084-0.03,0.15-0.03,0.15V337.14c0,7.308,5.921,13.229,13.22,13.229h236.736c7.313,0,13.229-5.921,13.229-13.229V217.025
			C306.772,216.449,306.869,215.885,306.869,215.284z M109.419,156.947l29.214,29.214H115.58c-2.441,0-4.401,1.969-4.401,4.407
			s1.955,4.407,4.401,4.407h119.027c2.438,0,4.413-1.957,4.413-4.407c0-2.438-1.976-4.407-4.413-4.407H165l45.907-45.916h19.27
			l39.223,61.811H80.785L109.419,156.947z M280.244,323.923H69.956v-95.422h210.289V323.923z"/>
	</g>
</g>
</svg>
